<?xml version="1.0" standalone="no"?>
<!DOCTYPE svg PUBLIC "-//W3C//DTD SVG 20010904//EN"
 "http://www.w3.org/TR/2001/REC-SVG-20010904/DTD/svg10.dtd">
<svg version="1.0" xmlns="http://www.w3.org/2000/svg"
 width="339.000000pt" height="343.000000pt" viewBox="0 0 339.000000 343.000000"
 preserveAspectRatio="xMidYMid meet">

<g transform="translate(0.000000,343.000000) scale(0.100000,-0.100000)"
fill="#000000" stroke="none">
<path d="M1632 3120 c-74 -16 -147 -72 -182 -140 -17 -33 -48 -148 -156 -570
-25 -96 -50 -190 -55 -207 -12 -39 20 -28 -429 -142 -349 -89 -375 -97 -438
-149 -66 -54 -86 -101 -87 -197 0 -94 22 -149 82 -206 50 -47 73 -55 378 -134
302 -77 443 -114 467 -121 21 -6 22 -10 108 -349 116 -456 116 -455 174 -522
52 -60 106 -83 194 -83 86 0 150 27 200 84 57 65 50 43 197 621 30 121 59 226
63 234 5 9 77 32 173 57 446 114 607 158 639 174 52 26 90 68 118 128 20 45
23 65 20 125 -6 114 -57 190 -155 235 -27 12 -210 63 -408 113 -198 50 -367
95 -376 100 -9 5 -19 21 -21 36 -3 16 -28 116 -56 223 -28 107 -69 266 -92
354 -47 182 -63 218 -120 270 -68 61 -150 84 -238 66z m105 -1064 c44 -154
168 -264 354 -316 40 -11 77 -24 81 -28 5 -5 -31 -19 -79 -32 -101 -26 -141
-45 -200 -92 -90 -72 -151 -178 -183 -321 -7 -32 -17 -54 -21 -50 -4 4 -17 44
-29 88 -29 106 -74 188 -135 250 -64 63 -127 97 -238 125 -48 13 -84 27 -79
32 4 4 35 15 68 23 138 35 269 126 328 227 13 24 37 86 51 138 15 52 30 99 33
104 3 5 11 -13 19 -40 7 -27 21 -76 30 -108z"/>
<path d="M2549 2977 c-59 -32 -99 -90 -107 -158 l-7 -54 -54 -7 c-241 -29
-241 -387 0 -416 l54 -7 7 -54 c13 -107 98 -181 208 -181 110 0 195 74 208
181 l7 54 54 7 c241 29 241 387 0 416 l-54 7 -7 54 c-13 107 -98 181 -208 181
-40 0 -70 -7 -101 -23z"/>
<path d="M631 1298 c-24 -11 -56 -40 -73 -62 -16 -23 -48 -55 -72 -73 -115
-84 -115 -262 0 -346 24 -18 56 -51 73 -73 80 -112 262 -112 342 0 17 22 49
55 73 73 115 84 115 262 0 346 -24 18 -56 51 -73 73 -57 81 -177 108 -270 62z"/>
</g>
</svg>
