<?xml version="1.0" standalone="no"?>
<!DOCTYPE svg PUBLIC "-//W3C//DTD SVG 20010904//EN"
 "http://www.w3.org/TR/2001/REC-SVG-20010904/DTD/svg10.dtd">
<svg version="1.0" xmlns="http://www.w3.org/2000/svg"
 width="335.000000pt" height="330.000000pt" viewBox="0 0 335.000000 330.000000"
 preserveAspectRatio="xMidYMid meet">

<g transform="translate(0.000000,330.000000) scale(0.100000,-0.100000)"
fill="#000000" stroke="none">
<path d="M1623 2760 c-53 -32 -49 -21 -168 -485 -100 -390 -99 -387 -160 -425
-17 -11 -83 -33 -146 -49 -63 -16 -231 -59 -373 -96 -143 -36 -272 -73 -287
-80 -81 -43 -92 -154 -21 -218 19 -18 70 -32 555 -156 241 -62 267 -70 301
-100 37 -32 32 -18 196 -656 48 -188 54 -202 99 -232 42 -28 95 -30 138 -3 53
32 41 -4 203 625 29 110 58 211 65 225 33 64 47 70 405 160 511 130 484 120
516 182 32 61 6 141 -55 172 -15 8 -153 47 -306 86 -154 39 -322 83 -374 96
-52 13 -109 34 -128 45 -60 37 -56 27 -158 424 -119 464 -115 453 -168 485
-18 11 -48 20 -67 20 -19 0 -49 -9 -67 -20z m111 -332 c144 -571 152 -594 215
-657 53 -53 102 -73 310 -127 387 -100 474 -124 484 -133 4 -4 -32 -17 -80
-29 -336 -84 -585 -152 -624 -169 -26 -12 -66 -40 -89 -63 -64 -64 -63 -62
-195 -575 -31 -121 -59 -222 -61 -224 -8 -9 -14 10 -69 224 -104 407 -113 440
-134 487 -25 59 -90 124 -150 151 -39 17 -288 85 -623 169 -49 12 -88 24 -88
27 0 4 57 21 128 40 70 18 165 43 212 56 47 12 141 37 210 55 161 42 200 60
250 110 55 55 73 99 131 325 27 105 66 254 86 333 20 78 40 142 44 142 3 0 23
-64 43 -142z"/>
<path d="M2604 2646 c-16 -12 -20 -30 -24 -118 l-5 -103 -103 -5 c-113 -5
-132 -15 -132 -70 0 -55 19 -65 132 -70 l103 -5 5 -103 c5 -113 15 -132 70
-132 55 0 65 19 70 132 l5 103 103 5 c113 5 132 15 132 70 0 55 -19 65 -132
70 l-103 5 -5 103 c-5 113 -15 132 -70 132 -14 0 -35 -6 -46 -14z"/>
<path d="M685 966 c-11 -8 -21 -31 -24 -57 -6 -43 -7 -44 -50 -50 -49 -6 -71
-28 -71 -69 0 -41 22 -63 71 -69 43 -6 44 -7 50 -50 6 -49 28 -71 69 -71 41 0
63 22 69 71 6 43 7 44 50 50 49 6 71 28 71 69 0 41 -22 63 -71 69 -43 6 -44 7
-50 50 -3 26 -13 49 -24 57 -24 18 -66 18 -90 0z"/>
</g>
</svg>
