<?xml version="1.0" standalone="no"?>
<!DOCTYPE svg PUBLIC "-//W3C//DTD SVG 20010904//EN"
 "http://www.w3.org/TR/2001/REC-SVG-20010904/DTD/svg10.dtd">
<svg version="1.0" xmlns="http://www.w3.org/2000/svg"
 width="1024.000000pt" height="1024.000000pt" viewBox="0 0 1024.000000 1024.000000"
 preserveAspectRatio="xMidYMid meet">

<g transform="translate(0.000000,1024.000000) scale(0.100000,-0.100000)"
fill="#000000" stroke="none">
<path d="M5490 8969 c-125 -18 -255 -92 -322 -183 -18 -25 -35 -45 -38 -46 -3
0 -22 22 -42 49 -41 55 -131 119 -216 153 -50 20 -74 23 -192 23 -123 -1 -141
-3 -204 -28 -38 -15 -94 -44 -126 -65 l-57 -38 -114 4 c-128 5 -222 -14 -322
-64 -60 -30 -172 -117 -181 -139 -4 -12 -23 -15 -84 -15 -260 0 -486 -146
-598 -386 l-33 -71 -68 -6 c-221 -21 -411 -148 -501 -337 -47 -98 -72 -207
-72 -314 l0 -74 -62 -11 c-92 -16 -200 -73 -268 -141 -129 -129 -173 -330
-107 -484 l21 -49 -35 -26 c-112 -82 -209 -225 -244 -359 -22 -86 -22 -222 0
-315 l18 -75 -37 -45 c-49 -60 -101 -176 -120 -269 -81 -394 160 -804 534
-907 41 -12 84 -21 96 -21 16 0 30 -14 49 -47 51 -88 132 -179 202 -227 149
-102 300 -125 564 -86 275 40 378 19 459 -95 71 -100 141 -164 219 -203 l75
-37 215 -6 c247 -7 297 -16 436 -84 190 -92 317 -243 370 -440 14 -53 17 -188
22 -1103 l6 -1043 26 -20 c29 -23 72 -20 103 8 17 15 18 64 18 1072 0 895 -3
1066 -15 1119 -70 298 -321 544 -637 623 -66 16 -130 22 -308 27 -277 9 -277
8 -390 155 -129 169 -201 201 -438 194 -81 -2 -195 -10 -254 -17 -211 -27
-377 33 -480 174 -15 21 -28 42 -28 47 0 4 15 11 33 14 17 4 65 22 106 41 73
34 75 34 217 34 86 0 144 -4 144 -10 0 -5 17 -21 37 -35 78 -52 177 -24 215
61 25 58 18 102 -23 149 -58 66 -141 70 -208 9 l-38 -34 -176 0 -176 0 -68
-37 c-59 -33 -77 -37 -152 -41 -167 -8 -296 43 -417 164 -118 117 -178 265
-178 439 -1 106 26 204 74 277 l31 47 -22 30 c-20 27 -21 35 -11 68 6 21 30
60 52 87 24 29 39 55 35 64 -3 9 -11 46 -17 84 -23 134 23 274 127 387 50 53
76 71 172 118 79 38 113 59 113 71 -1 10 -21 27 -53 42 -28 14 -65 42 -81 63
-26 32 -31 49 -34 106 -4 59 0 78 24 130 44 100 138 169 258 192 60 11 89 8
168 -17 35 -11 49 -22 56 -42 43 -124 218 -119 252 7 9 35 8 48 -9 86 -27 61
-70 86 -142 83 -64 -3 -100 15 -124 62 -56 108 4 308 126 425 81 77 154 110
244 110 76 -1 117 -16 189 -74 21 -17 44 -31 50 -31 7 0 11 39 11 123 0 119 1
124 34 192 67 137 211 242 348 253 l64 5 -11 -27 c-6 -16 -10 -122 -10 -250 0
-280 3 -291 110 -396 42 -41 107 -104 146 -140 111 -104 108 -91 114 -470 5
-312 6 -327 28 -375 25 -53 87 -124 138 -156 18 -11 73 -28 122 -39 101 -21
153 -44 196 -86 59 -59 60 -68 67 -444 5 -323 7 -349 28 -415 32 -97 78 -169
158 -246 101 -97 210 -153 328 -168 l50 -6 3 -468 2 -469 -50 49 c-100 95
-221 152 -365 173 -38 5 -154 10 -257 10 -216 0 -262 11 -341 81 -55 48 -87
111 -126 244 -16 55 -37 120 -47 145 -71 178 -214 312 -394 372 -60 20 -92 22
-425 27 -394 7 -363 2 -472 71 l-47 30 -213 0 -213 0 0 45 c0 24 -5 55 -11 69
-10 22 4 60 126 338 l138 313 166 164 c91 90 183 174 204 188 45 28 77 77 77
116 0 72 -63 137 -132 137 -41 0 -97 -34 -116 -70 -13 -25 -12 -91 2 -121 5
-11 -36 -56 -156 -171 l-163 -155 -140 -327 c-136 -318 -140 -328 -179 -349
-58 -32 -81 -69 -81 -127 0 -43 5 -54 37 -87 21 -22 38 -49 38 -60 0 -12 4
-24 8 -27 4 -3 129 -5 278 -6 l269 -2 35 -28 c39 -30 107 -67 155 -83 17 -6
179 -13 370 -17 376 -7 397 -10 507 -81 109 -70 172 -171 229 -364 17 -60 43
-132 57 -160 52 -105 138 -184 254 -232 61 -26 72 -27 318 -33 228 -6 261 -9
315 -28 165 -61 295 -203 340 -372 13 -47 15 -246 15 -1318 l0 -1264 29 -29
c37 -37 65 -37 102 0 l29 30 -2 1919 -3 1920 65 6 c151 15 318 80 435 169 81
61 284 271 332 343 l38 57 3 129 c3 121 5 129 26 143 68 45 58 171 -18 220
-90 59 -216 -10 -216 -118 0 -42 30 -101 55 -111 12 -4 15 -24 15 -89 0 -68
-4 -92 -25 -133 -27 -54 -225 -259 -310 -320 -92 -67 -213 -112 -342 -129 -49
-6 -53 -5 -58 17 -3 12 -4 117 -3 232 l3 209 70 14 c200 41 362 200 436 428
20 64 23 95 28 386 l6 316 30 48 c21 33 47 57 85 79 l55 31 448 3 447 3 0
-116 0 -115 -34 -38 -34 -37 -122 -3 c-115 -4 -123 -2 -146 19 -15 14 -40 23
-73 27 -47 4 -53 2 -85 -30 -64 -64 -56 -154 16 -198 52 -31 120 -21 157 24
11 13 36 16 131 16 182 0 254 31 304 132 26 51 26 54 26 282 l0 230 28 29 c22
23 27 37 27 78 0 46 -4 54 -37 85 -29 26 -46 34 -75 34 -50 0 -101 -32 -119
-75 -20 -48 -18 -67 11 -109 15 -22 25 -51 25 -71 l0 -35 -225 0 -224 0 -17
32 c-22 43 -15 138 16 203 15 32 51 75 99 120 157 145 211 204 232 252 19 44
20 64 17 283 -2 129 -8 243 -12 254 -9 17 -6 18 40 12 139 -21 285 -134 352
-273 36 -75 37 -82 37 -185 0 -60 4 -108 9 -108 4 0 35 20 68 45 65 49 104 60
183 52 151 -15 295 -169 338 -361 11 -50 24 -77 46 -100 45 -46 71 -112 71
-179 0 -55 3 -62 41 -105 89 -102 128 -201 136 -347 7 -124 -14 -238 -63 -343
-90 -196 -238 -332 -397 -363 -53 -11 -59 -10 -80 8 -75 69 -181 50 -215 -39
-49 -129 107 -240 206 -147 23 23 38 27 108 31 69 4 93 11 169 47 73 36 104
59 180 135 185 183 276 422 262 686 -10 191 -72 334 -200 465 l-79 80 -2 100
c-8 324 -254 600 -556 622 l-66 5 -39 87 c-33 72 -53 100 -124 172 -70 71
-102 94 -172 128 -96 46 -194 71 -284 71 -57 0 -62 2 -89 36 -39 50 -159 125
-242 153 -81 28 -272 41 -324 22 -30 -10 -37 -8 -106 38 -138 93 -268 123
-424 100z m-755 -180 c128 -24 214 -89 272 -207 l38 -76 3 -462 3 -462 -33 7
c-206 47 -348 278 -348 568 0 95 2 107 25 141 45 66 30 146 -34 189 -62 42
-155 18 -188 -47 -7 -14 -13 -46 -13 -72 0 -41 5 -52 35 -82 l35 -35 0 -128 0
-128 -88 -97 c-160 -177 -363 -393 -373 -396 -5 -2 -9 4 -9 13 0 10 -14 44
-32 77 -24 45 -66 93 -166 187 -73 69 -140 138 -148 153 -10 20 -14 69 -14
195 0 236 24 318 120 414 75 75 197 129 292 129 l48 0 -26 -57 c-38 -86 -54
-174 -54 -305 0 -100 -3 -123 -20 -150 -12 -20 -20 -51 -20 -76 0 -113 160
-149 220 -50 27 45 26 90 -5 126 -23 28 -25 37 -25 137 0 88 5 120 25 182 45
134 118 222 230 277 90 44 155 53 250 35z m1002 -21 c186 -69 292 -226 308
-459 7 -91 6 -97 -19 -133 -35 -52 -36 -113 -1 -155 72 -84 200 -48 212 61 4
37 1 49 -21 75 -25 29 -26 36 -26 149 0 134 -16 223 -54 304 l-26 55 47 3 c98
7 261 -70 329 -155 78 -97 97 -181 92 -405 -2 -119 -7 -160 -20 -184 -9 -16
-62 -70 -118 -120 -121 -107 -185 -183 -208 -247 -9 -26 -21 -46 -25 -44 -5 1
-112 111 -238 242 l-229 240 0 131 0 130 29 22 c61 45 62 139 1 197 -23 22
-41 29 -85 33 -53 4 -56 3 -95 -36 -36 -36 -40 -45 -40 -89 0 -38 7 -60 26
-89 26 -38 27 -42 21 -154 -9 -183 -64 -343 -149 -436 -45 -49 -164 -114 -209
-114 l-28 0 5 418 c2 229 6 441 9 470 7 102 90 228 180 275 98 51 222 56 332
15z m229 -1218 l249 -255 -165 -6 c-208 -7 -255 -23 -346 -113 -102 -102 -106
-120 -114 -491 -7 -329 -10 -345 -62 -449 -54 -108 -178 -206 -281 -223 l-36
-5 2 703 2 703 71 17 c164 40 303 151 380 301 21 43 41 77 45 75 3 -1 117
-117 255 -257z m-1362 177 c80 -147 234 -267 384 -298 l62 -13 0 -704 0 -704
-32 7 c-98 21 -224 116 -288 216 -18 27 -50 97 -70 154 -50 135 -84 197 -138
246 -55 51 -125 83 -225 104 -98 20 -148 44 -184 92 l-28 36 -3 209 -3 209
143 157 c227 250 331 362 337 362 3 0 24 -33 45 -73z m212 -1803 c60 -36 167
-74 204 -74 l30 0 0 -234 0 -233 -43 8 c-158 29 -284 128 -338 266 -20 51 -24
79 -27 237 l-4 180 66 -62 c36 -33 86 -73 112 -88z"/>
<path d="M2942 7655 c-51 -37 -66 -108 -32 -162 39 -64 133 -82 184 -34 30 28
45 27 97 -8 40 -28 43 -32 40 -69 -1 -23 5 -54 13 -71 14 -25 16 -80 16 -360
l0 -331 176 -262 c97 -145 191 -278 210 -295 33 -33 35 -33 132 -33 96 0 99
-1 127 -30 51 -53 130 -48 180 11 46 55 24 149 -44 184 -42 21 -73 19 -115
-10 -31 -21 -49 -25 -106 -25 -82 0 -61 -22 -273 293 l-147 218 0 291 0 291
36 31 c84 73 35 206 -77 206 -13 0 -44 21 -74 49 -47 44 -101 71 -144 71 -8 0
-27 12 -43 27 -35 34 -120 44 -156 18z"/>
<path d="M7193 7489 c-50 -14 -76 -60 -71 -120 6 -59 34 -94 90 -111 32 -9 45
-9 74 5 49 24 78 21 115 -10 55 -47 59 -68 59 -329 0 -256 -2 -267 -58 -309
-24 -18 -48 -21 -217 -26 -151 -5 -205 -11 -263 -28 -258 -75 -461 -275 -540
-532 -11 -36 -27 -114 -36 -175 -9 -60 -21 -143 -27 -184 -31 -210 -121 -364
-273 -470 -27 -18 -96 -53 -154 -76 -57 -23 -127 -58 -155 -77 -126 -84 -235
-230 -282 -380 -57 -178 -55 -122 -55 -1763 0 -963 4 -1522 10 -1538 18 -48
76 -58 125 -22 20 14 20 29 25 1568 l6 1553 22 75 c32 112 95 232 157 299 55
59 133 107 244 151 152 59 301 184 380 317 48 82 95 220 110 323 33 233 44
289 66 356 34 101 78 176 148 251 71 76 145 122 252 159 70 24 101 28 260 34
149 5 188 10 226 27 65 29 114 76 144 138 25 54 25 54 25 336 0 265 -1 285
-21 325 -34 72 -143 153 -205 154 -12 0 -25 10 -32 25 -7 15 -30 34 -55 45
-47 22 -49 22 -94 9z"/>
<path d="M2865 6526 c-82 -36 -111 -133 -60 -194 l25 -30 0 -227 c0 -151 4
-241 12 -269 17 -55 91 -131 143 -145 22 -6 121 -11 221 -11 179 0 182 0 220
-26 72 -49 93 -70 83 -85 -14 -22 -10 -72 7 -97 32 -46 105 -65 157 -41 50 23
74 110 42 156 -8 11 -34 30 -57 41 -24 11 -62 42 -85 70 -23 27 -63 64 -89 81
l-47 31 -193 0 c-128 0 -202 4 -219 12 -50 23 -55 48 -55 282 0 191 2 216 18
232 55 54 65 107 32 161 -36 59 -101 84 -155 59z"/>
<path d="M4050 5782 c-85 -42 -106 -149 -41 -216 l31 -32 0 -193 c0 -232 7
-267 92 -440 75 -155 82 -150 74 62 -4 84 -9 248 -12 366 l-5 213 27 29 c37
39 44 110 14 157 -21 33 -87 71 -125 72 -11 0 -36 -8 -55 -18z"/>
<path d="M7444 4839 c-17 -5 -39 -18 -49 -29 -18 -20 -30 -20 -549 -20 -599 0
-614 -2 -756 -71 -158 -78 -281 -229 -337 -414 -16 -56 -18 -149 -20 -1492
l-3 -1431 23 -28 c30 -35 77 -37 112 -4 l24 23 3 1416 3 1416 23 66 c64 189
176 297 362 348 71 20 99 21 586 21 432 0 517 -2 547 -15 124 -51 233 54 167
162 -29 48 -80 68 -136 52z"/>
<path d="M8276 4635 c-14 -15 -16 -76 -16 -596 l0 -579 100 0 100 0 2 568 c2
365 -1 576 -7 592 -9 23 -16 25 -86 28 -60 2 -80 -1 -93 -13z"/>
<path d="M7178 4499 c-11 -6 -18 -22 -18 -39 l0 -30 100 0 c99 0 100 0 100 24
0 52 -7 56 -89 56 -42 0 -84 -5 -93 -11z"/>
<path d="M7447 4492 c-15 -17 -17 -68 -17 -525 l0 -507 165 0 165 0 0 515 c0
498 -1 515 -19 525 -11 5 -78 10 -149 10 -112 0 -131 -2 -145 -18z"/>
<path d="M7862 4494 c-25 -18 -29 -59 -6 -68 9 -3 80 -6 159 -6 155 0 165 4
145 54 -12 33 -26 36 -159 36 -89 0 -122 -4 -139 -16z"/>
<path d="M6961 4378 c-46 -118 -120 -303 -225 -563 -69 -170 -124 -310 -123
-311 1 -1 35 -16 75 -33 68 -30 92 -33 92 -10 0 13 255 707 291 793 16 37 29
74 29 81 0 10 -107 65 -126 65 -2 0 -8 -10 -13 -22z"/>
<path d="M7157 4288 c-6 -90 -25 -548 -30 -736 l-2 -92 113 0 112 0 0 460 0
460 -94 0 -93 0 -6 -92z"/>
<path d="M7850 3915 l0 -455 155 0 155 0 0 455 0 455 -155 0 -155 0 0 -455z"/>
<path d="M6560 4338 c-16 -18 -339 -456 -384 -523 -14 -19 2 -35 124 -132
l105 -83 17 23 c10 12 89 127 175 256 87 129 170 248 186 265 15 17 26 36 25
42 -5 17 -196 174 -212 174 -8 0 -25 -10 -36 -22z m103 -147 c42 -34 77 -65
77 -67 0 -7 -104 74 -150 116 -49 45 -18 24 73 -49z"/>
<path d="M2923 4120 c-41 -25 -63 -68 -63 -125 0 -39 6 -52 39 -88 32 -35 39
-51 44 -98 13 -133 107 -230 277 -284 47 -16 112 -19 465 -24 l410 -6 66 -32
c111 -55 193 -168 219 -302 6 -34 10 -372 10 -917 l0 -863 23 -25 c36 -41 71
-43 107 -7 l31 30 -3 913 -3 913 -26 72 c-35 95 -72 156 -132 220 -64 68 -129
109 -225 141 -77 26 -78 26 -497 32 -458 5 -440 3 -514 66 -37 31 -71 92 -71
127 0 13 9 32 20 42 54 49 44 154 -19 206 -44 36 -108 40 -158 9z"/>
<path d="M6088 3698 c-36 -48 -51 -79 -41 -87 4 -4 35 -30 68 -57 95 -79 147
-114 170 -114 16 0 29 14 48 49 15 27 27 51 27 54 0 11 -221 187 -234 187 -8
0 -25 -15 -38 -32z"/>
<path d="M6053 3365 c-63 -27 -66 -107 -7 -134 18 -8 373 -11 1298 -11 1251 0
1273 0 1293 20 12 10 24 29 28 40 10 30 -12 75 -41 89 -18 8 -368 11 -1282 11
-1060 -1 -1262 -3 -1289 -15z"/>
<path d="M6105 3066 c-60 -28 -87 -56 -114 -116 -46 -102 -12 -233 77 -295
l44 -30 900 -3 c830 -2 903 -1 920 14 20 19 24 64 6 82 -7 7 -39 12 -74 12
-35 0 -74 4 -88 10 -57 21 -84 117 -51 180 25 48 51 60 137 60 66 0 79 3 88
19 15 29 12 45 -10 69 l-21 22 -882 0 -882 0 -50 -24z"/>
<path d="M6080 2471 c-47 -24 -97 -91 -105 -139 -3 -22 -1 -59 5 -81 13 -48
67 -113 108 -130 19 -8 202 -10 642 -9 l614 3 16 28 c14 27 14 29 -9 48 -19
15 -39 19 -103 19 -44 0 -88 4 -98 10 -28 15 -42 66 -29 112 14 52 55 70 149
66 72 -2 100 9 100 42 0 9 -8 24 -18 33 -17 15 -75 17 -628 17 -574 0 -611 -1
-644 -19z"/>
<path d="M6104 2003 c-49 -3 -66 -9 -84 -28 -33 -35 -31 -82 4 -112 l27 -23
553 0 553 0 23 25 c30 32 31 89 3 117 -19 18 -41 19 -519 22 -274 2 -527 2
-560 -1z"/>
</g>
</svg>
